PathFileType	4	(X/Y/Z)	54_2_rein_50_p1_0-989.trc
DataRate	CameraRate	NumFrames	NumMarkers	Units	OrigDataRate	OrigDataStartFrame	OrigNumFrames
60.0	60.0	5	27	m	60.0	742	990
Frame#	Time	RHip			RKnee			RAnkle			RBigToe			RSmallToe			RHeel			LHip			LKnee			LAnkle			LBigToe			LSmallToe			LHeel			Neck			Head			Nose			RShoulder			RElbow			RWrist			RThumb			RIndex			RPinky			LShoulder			LElbow			LWrist			LThumb			LIndex			LPinky			
		X1	Y1	Z1	X2	Y2	Z2	X3	Y3	Z3	X4	Y4	Z4	X5	Y5	Z5	X6	Y6	Z6	X7	Y7	Z7	X8	Y8	Z8	X9	Y9	Z9	X10	Y10	Z10	X11	Y11	Z11	X12	Y12	Z12	X13	Y13	Z13	X14	Y14	Z14	X15	Y15	Z15	X16	Y16	Z16	X17	Y17	Z17	X18	Y18	Z18	X19	Y19	Z19	X20	Y20	Z20	X21	Y21	Z21	X22	Y22	Z22	X23	Y23	Z23	X24	Y24	Z24	X25	Y25	Z25	X26	Y26	Z26	X27	Y27	Z27	
742	12.366666666666667	0.29786615466646166	0.5098453602859243	0.9911475087508848	0.26488633929023625	0.5163188384841617	1.4460522447462119	0.2635921325587305	0.5525929223843353	1.9280291005298125	0.21138207382775062	0.3402154078131622	1.9236689506646398	0.28106546737897187	0.394882504610905	1.965320995222776	0.24624079501325016	0.6491127009697604	2.016419183007379	0.08381745493432378	0.543966036962258	0.9867399854858604	0.07538878248881525	0.5611664603760714	1.4645376747003476	0.06560371422409707	0.5664760658003494	1.8869376188521123	0.06578003269302754	0.36578877370103785	1.9277737466634388	0.014556321809421029	0.4240992931807662	1.956790712725891	0.07737008225279675	0.6087438862740827	1.9445317981695056	0.21898609115167364	0.48871213564230687	0.41466785789710814	0.26209119759127325	0.40934308718425133	0.16319276735156926	0.2680943682050033	0.3874487888798655	0.30583974876871367	0.37247502831046353	0.5014836612367415	0.4904465650946193	0.41187974667936433	0.5712346909414322	0.7359152936402918	0.35134843842174135	0.3110362726228421	0.7630590617968187	0.30854141361126886	0.12661101149535425	0.7437397693507296	0.3058658644813287	0.11981488540483637	0.7521327484291341	0.3195526471290839	0.20658087340790934	0.8073263569083797	0.04694889591395944	0.5352448054864086	0.46800743033061537	-0.008324323613215515	0.6009994638487087	0.7097184974353284	-0.012102186960867763	0.36984667611092664	0.7588678865190382	0.008950443001178246	0.24000408315386523	0.7607381024959017	-0.0015548584317920785	0.23704995768638543	0.7849522486822007	-0.006311059876937137	0.28073599397303944	0.8293779875279954
743	12.383333333333333	0.298085542884482	0.5099664023849485	0.9912725355894947	0.26581055745202775	0.5174572135996773	1.4510428167943328	0.26358663685054695	0.5527811344683466	1.9281214058080915	0.2151145343210857	0.3500491818447509	1.930465749749449	0.2849946581419941	0.40580946465925616	1.9726774456888465	0.24663325873230288	0.6503028233543526	2.017386713676938	0.08386266515276472	0.5439302681312673	0.9867729559271889	0.07600245042681658	0.5622234549314657	1.4701891016457582	0.06565349372380384	0.5664658061511272	1.8869018712383547	0.0657997932562936	0.365871324756402	1.9278089782278456	0.014574469772161671	0.4241470197149936	1.9567784095052596	0.07738146249550959	0.6087078728688291	1.9445296250346047	0.21898373861075335	0.4887169886070531	0.4147167116799547	0.26208583131177204	0.4093100827818219	0.16320947316360837	0.26807648060193723	0.38741114997398535	0.3059680765753384	0.3727608585718893	0.5019996104059713	0.49387538253115076	0.4110486477690095	0.5703748087131704	0.7352739688349416	0.355533359206097	0.32013671373464897	0.7655731545883827	0.3086096184713706	0.1261698010213892	0.7446111918345911	0.3060724242588857	0.11975377965562199	0.7522603347282277	0.3200615602326642	0.2054209524868659	0.8106711275886765	0.04696832346620336	0.5351483414440416	0.46800067029349457	-0.008291851587324003	0.6009815110435253	0.7097253198167448	-0.01193499666074296	0.36892784319214156	0.7626668478418925	0.008812130413511915	0.23945535916480218	0.7604306047675545	-0.004242512864848116	0.2277228553535847	0.7824412160998286	-0.00618525497128695	0.28060632080496817	0.8294739355587515
744	12.4	0.29469136158574244	0.5242604516857972	0.9956867644210655	0.26567179281374054	0.5171106109552263	1.4506867341091947	0.26279949025712007	0.5489518657760304	1.9254242911553934	0.21526648077691643	0.3506284457431431	1.9304845910786608	0.2852121465867935	0.40676584434122615	1.972795821936493	0.24523343214580393	0.6467023512609593	2.0143738909302864	0.08399692720690277	0.5442569575102423	0.9821914315551699	0.07936370807509242	0.5632785624922442	1.4655122271974146	0.06567107372227943	0.5663376754315461	1.8867953648451625	0.061693687799142104	0.3642558562345277	1.931421325621214	0.009783622057544596	0.43771267172526945	1.9660904750851496	0.08230114518569194	0.5927443875818859	1.9341834199715746	0.21898673102503816	0.4887309350020586	0.41467400442352265	0.2588911072174363	0.4205610911450288	0.16376179029027216	0.2679262058906169	0.3874956028849996	0.3058214253992733	0.37319424929239464	0.5013007706280449	0.49764576476231065	0.41162054841067064	0.5708800360107884	0.7394682653581763	0.3556599681276937	0.3203501867870416	0.7655912224522876	0.3118498241801976	0.1327162531490442	0.7451677767205577	0.3062400148026508	0.11764546463140302	0.7522561485116365	0.31945143990660896	0.20343783948011734	0.806863026332424	0.046934613368752424	0.5350962376581934	0.46807591421909	-0.008205241614174146	0.6009972319302429	0.7097345230085351	-0.016048924422198248	0.36626209016051114	0.7620040973200444	0.009055844630656751	0.23829993046844453	0.7640904266177515	-0.004219380036156931	0.22685080899572987	0.7859827053715298	-0.010428376570564961	0.29193484215696375	0.8330686939257078
745	12.416666666666666	0.2939209503285547	0.5247466589715645	0.987677229242424	0.265633603396313	0.5175121919070751	1.4509464027383712	0.25881025990195444	0.5662865956603368	1.9366539002036207	0.21518428057899472	0.35000877765285693	1.9305822162375164	0.28855629904355984	0.3909116241738115	1.9623045905632623	0.24680237247415818	0.6507081829342077	2.017694713695925	0.08392603506687991	0.544398499452947	0.9822703781845107	0.07936616344168855	0.5634493152982557	1.4657307162738211	0.06553851025492344	0.5663717793382996	1.8868196213153468	0.06404627553482828	0.37349841905094466	1.9334230270537955	0.014589758819471542	0.4239472685967343	1.9568054447796999	0.07972573335244353	0.6208866914406743	1.9581672600532312	0.2155549556431884	0.5007197271695168	0.41622200871939125	0.2623391544978132	0.4221217722091272	0.1637910974383096	0.26495388822573135	0.39942789096354253	0.3038833406853432	0.3730666063826312	0.5011217101761186	0.49764275116598566	0.41107324188147626	0.5702425885822481	0.7352833395219208	0.3596124890668391	0.32203848937707813	0.7660117508759177	0.3088029979460807	0.12546284298460292	0.746082693620815	0.30868075471296313	0.10753644324907977	0.7499336713799716	0.32750853480280523	0.19579539178871838	0.8078810091822284	0.04432746895838151	0.5248525027786468	0.4665832801541329	-0.008153606121098974	0.6009719291423465	0.7097859086750171	-0.011782017249758194	0.3697039683829354	0.7664052221088615	0.008541090218853508	0.23939850738442342	0.7606515289619774	-0.004327283442995194	0.227103527544082	0.7859807330266453	-0.010593460352166682	0.29241685469432005	0.8334094623091015
746	12.433333333333334	0.2973030813647315	0.510445271226912	0.9829539899979396	0.2656658829259431	0.5189235365005789	1.4474320953885276	0.2626956320462875	0.5497676373959288	1.9259073301198713	0.21895781803101608	0.3602448686914703	1.9375317295351278	0.28775560662479516	0.3902110597189278	1.9571308545351258	0.24594394083128288	0.6484757600135524	2.015755669172557	0.08403101500850077	0.5445431519930647	0.9822197315656384	0.07937692045065654	0.5633211865682812	1.4654034932257167	0.06549934215060564	0.5663489459647482	1.8867478464121032	0.068799211713708	0.3766871043775164	1.9354206895529849	0.014601869805248385	0.4240510351950049	1.9568294653265443	0.07602628760275763	0.6090453197708213	1.9502649445712092	0.21558145601303771	0.49998316917385366	0.4192557128492439	0.2588703323826914	0.42063489430893636	0.16373469046150937	0.26486119645859313	0.3989890824382537	0.3069357067249726	0.37289924981175565	0.502045391765891	0.49405687115298325	0.4113688071523729	0.5703658542491024	0.7317506598409713	0.35966889763863735	0.3222139271291216	0.7660685789696009	0.3088552833190359	0.12534632867593584	0.7463665195743744	0.30913153564114626	0.10821131477134734	0.7529608592738612	0.32460739490132184	0.20760632006907723	0.8114380830936562	0.044325227222798615	0.5248876357528028	0.46656826891247005	-0.008079139098782077	0.6001592032659955	0.712987754396723	-0.011769899536258477	0.3696590351827838	0.7663691828024346	0.008471481954446984	0.23921718876518192	0.7605162868722555	-0.0015629126421976389	0.2361398960383256	0.7884705900445641	-0.010408152404797968	0.29217947711444475	0.8332994681271779
